<svg xmlns="http://www.w3.org/2000/svg" width="288" height="33" viewBox="0 0 288 33"><path fill="#00264c" d="M73.374 19.73c0 1.26 0 2.295.063 2.846.039.38.115.669.499.72.179.027.46.054.574.054.077 0 .102.039.102.078 0 .066-.064.105-.204.105-.702 0-1.508-.039-1.572-.039-.064 0-.87.04-1.254.04-.14 0-.204-.027-.204-.106 0-.04.025-.078.101-.078.116 0 .27-.027.385-.053.256-.052.32-.341.37-.721.065-.55.065-1.587.065-2.846v-5.546l-1.895.026c-.792.013-1.1.105-1.305.42-.14.223-.178.315-.217.406-.039.106-.077.132-.128.132-.038 0-.064-.04-.064-.118 0-.132.256-1.26.28-1.364.028-.079.078-.25.13-.25.09 0 .218.132.563.158.371.04.857.065 1.01.065h4.796a4.9 4.9 0 0 0 .906-.065c.192-.026.31-.065.362-.065.066 0 .066.078.066.157 0 .393-.04 1.298-.04 1.442 0 .118-.039.17-.092.17-.065 0-.09-.04-.104-.223l-.012-.144c-.039-.393-.346-.694-1.572-.72l-1.61-.027zm13.846.007c0 1.26 0 2.297.064 2.848.038.38.115.67.498.721.18.027.461.053.577.053.076 0 .102.04.102.08 0 .065-.064.104-.205.104-.704 0-1.51-.04-1.574-.04-.064 0-.87.04-1.253.04-.142 0-.205-.026-.205-.105 0-.04.025-.079.102-.079.115 0 .268-.026.383-.053.256-.052.32-.34.372-.721.063-.551.063-1.588.063-2.848v-1.378a.075.075 0 0 0-.076-.079H80.64c-.037 0-.076.013-.076.079v1.378c0 1.26 0 2.297.065 2.848.038.38.114.67.499.721.178.027.46.053.575.053.077 0 .102.04.102.08 0 .065-.063.104-.204.104-.704 0-1.51-.04-1.574-.04-.064 0-.87.04-1.254.04-.141 0-.205-.026-.205-.105 0-.04.025-.079.102-.079.115 0 .27-.026.384-.053.256-.052.32-.34.372-.721.063-.551.063-1.588.063-2.848v-2.31c0-2.048 0-2.416-.025-2.835-.026-.447-.129-.656-.55-.749a2.311 2.311 0 0 0-.436-.039c-.051 0-.102-.026-.102-.079 0-.078.064-.105.205-.105.576 0 1.382.04 1.446.04.063 0 .87-.04 1.254-.04.14 0 .205.027.205.105 0 .053-.051.08-.102.08-.09 0-.167.012-.321.038-.345.066-.448.29-.473.75-.026.418-.026.786-.026 2.834v.275c0 .066.039.079.076.079h5.427c.038 0 .076-.013.076-.079v-.275c0-2.048 0-2.416-.025-2.835-.025-.447-.128-.656-.55-.749a2.315 2.315 0 0 0-.435-.039c-.051 0-.103-.026-.103-.079 0-.078.064-.105.205-.105.576 0 1.382.04 1.446.04.064 0 .87-.04 1.254-.04.14 0 .205.027.205.105 0 .053-.051.08-.102.08-.09 0-.167.012-.321.038-.345.066-.448.29-.473.75-.025.418-.025.786-.025 2.834zm4.555-2.314c0-2.046 0-2.413-.026-2.832-.025-.446-.127-.656-.55-.748a2.32 2.32 0 0 0-.435-.04c-.05 0-.102-.026-.102-.078 0-.078.064-.105.205-.105.294 0 .639 0 .921.014l.524.025c.09 0 2.637 0 2.931-.012a3.27 3.27 0 0 0 .55-.066c.064-.013.115-.066.18-.066.038 0 .05.053.05.119 0 .091-.063.248-.102.616-.013.131-.038.708-.064.865-.013.065-.038.144-.09.144-.076 0-.101-.065-.101-.17a1.44 1.44 0 0 0-.078-.472c-.09-.21-.217-.367-.908-.446-.217-.026-1.613-.04-1.753-.04-.052 0-.077.04-.077.132v3.619c0 .092.013.131.077.131.167 0 1.74 0 2.034-.026.308-.026.486-.052.602-.184.09-.105.14-.17.192-.17.038 0 .064.026.064.104 0 .079-.064.302-.103.735-.025.262-.05.747-.05.84 0 .104 0 .249-.09.249-.065 0-.09-.053-.09-.12 0-.13 0-.26-.05-.431-.052-.184-.167-.407-.666-.46-.346-.039-1.613-.065-1.83-.065-.065 0-.09.04-.09.092v1.153c0 .446-.013 1.967 0 2.243.039.904.23 1.075 1.484 1.075.333 0 .896 0 1.229-.144.333-.144.486-.407.576-.945.025-.144.05-.196.115-.196.077 0 .077.105.077.196 0 .105-.103.997-.167 1.273-.09.34-.192.34-.69.34-.96 0-1.664-.026-2.163-.039a22.5 22.5 0 0 0-1-.039c-.024 0-.242 0-.51.013-.256 0-.55.026-.743.026-.14 0-.205-.026-.205-.105 0-.039.026-.078.103-.078.116 0 .269-.027.383-.053.256-.052.32-.341.372-.721.064-.55.064-1.587.064-2.846zm14.38.838c0 2.699.072 3.874.395 4.205.287.293.752.422 2.15.422.949 0 1.738-.018 2.167-.55.233-.295.413-.754.466-1.102.019-.148.054-.24.161-.24.09 0 .108.074.108.276s-.125 1.304-.27 1.836c-.124.422-.178.496-1.127.496-1.29 0-2.222-.037-2.975-.055a36.99 36.99 0 0 0-1.827-.055c-.072 0-.376.018-.734.018-.359.018-.752.037-1.022.037-.197 0-.286-.037-.286-.147 0-.055.035-.11.143-.11.161 0 .377-.037.538-.074.358-.073.447-.477.52-1.01.089-.77.089-2.221.089-3.984v-3.232c0-2.865 0-3.379-.036-3.966-.036-.625-.179-.918-.77-1.047a3.33 3.33 0 0 0-.61-.055c-.071 0-.143-.037-.143-.11 0-.11.09-.147.286-.147.806 0 1.936.055 2.025.055.09 0 1.398-.055 1.935-.055.198 0 .287.037.287.147 0 .073-.072.11-.143.11-.126 0-.377.019-.592.055-.52.092-.663.404-.698 1.047-.037.587-.037 1.101-.037 3.966zm13.544-.784c.09 0 .09-.056.072-.129l-1.702-4.961c-.09-.276-.18-.276-.268 0l-1.577 4.961c-.036.092 0 .129.053.129zm-1.858-7.35c.215-.607.287-.717.394-.717.107 0 .18.091.394.661.27.699 3.084 8.288 4.178 11.08.646 1.636 1.166 1.93 1.541 2.04.27.092.54.11.718.11.108 0 .18.02.18.11 0 .111-.162.148-.359.148-.27 0-1.578 0-2.815-.037-.34-.018-.538-.018-.538-.128 0-.074.054-.11.126-.13.107-.036.215-.201.107-.495l-1.667-4.52c-.036-.074-.072-.111-.162-.111h-3.855c-.089 0-.142.055-.178.148l-1.076 3.252c-.161.46-.25.9-.25 1.23 0 .368.375.534.68.534h.18c.124 0 .18.037.18.11 0 .11-.109.147-.27.147-.43 0-1.201-.055-1.399-.055-.197 0-1.183.055-2.025.055-.234 0-.34-.037-.34-.147 0-.073.07-.11.16-.11.126 0 .377-.019.52-.037.825-.11 1.183-.808 1.506-1.727zm21.064 10.896h.07c.484-1.69 2.133-7.02 2.76-9.371.179-.68.198-.938.198-1.176 0-.332-.197-.552-1.021-.552-.09 0-.162-.055-.162-.129 0-.091.09-.128.304-.128.914 0 1.667.055 1.828.055.125 0 .896-.055 1.45-.055.163 0 .252.037.252.11 0 .092-.054.147-.161.147-.072 0-.413.019-.61.092-.537.202-.824.974-1.163 1.985-.79 2.334-2.599 8.177-3.297 10.235-.466 1.36-.556 1.58-.753 1.58-.18 0-.286-.239-.537-.956l-3.512-10.216h-.036c-.645 1.764-3.1 8.49-3.744 10.199-.286.77-.376.973-.59.973-.18 0-.27-.202-.628-1.45l-3.189-10.898c-.286-.974-.52-1.25-.986-1.434-.233-.091-.68-.11-.806-.11-.089 0-.161-.018-.161-.129 0-.091.108-.128.286-.128.933 0 1.917.055 2.115.055.16 0 .949-.055 1.845-.055.25 0 .323.055.323.128 0 .111-.09.13-.18.13-.143 0-.484 0-.698.11-.108.055-.233.202-.233.44 0 .24.16.883.34 1.676.269 1.177 2.132 7.93 2.402 8.905h.035l3.798-10.488c.268-.754.34-.846.447-.846.126 0 .234.24.449.865zm20.465 2.793c-2.69 0-4.5-.68-5.917-1.985-1.739-1.598-2.169-3.693-2.169-5.439 0-1.23.412-3.38 2.008-5.016 1.075-1.102 2.707-1.966 5.47-1.966.717 0 1.72.055 2.598.22.682.13 1.255.24 1.83.276.197.018.233.091.233.202 0 .147-.055.368-.09 1.03-.036.606-.036 1.616-.054 1.892-.018.276-.053.386-.161.386-.126 0-.144-.129-.144-.386 0-.716-.287-1.47-.753-1.874-.627-.552-2.008-1.048-3.586-1.048-2.385 0-3.496.717-4.124 1.341-1.308 1.287-1.614 2.922-1.614 4.796 0 3.51 2.635 6.725 6.473 6.725 1.345 0 2.403-.164 3.12-.918.377-.404.61-1.213.664-1.543.036-.203.072-.276.178-.276.091 0 .126.128.126.276 0 .128-.215 1.727-.394 2.351-.108.35-.144.386-.466.534-.718.294-2.08.422-3.228.422zm18.715-6.995c0-4.415-2.616-6.787-5.446-6.787-2.993 0-5.231 2.024-5.231 6.05 0 4.285 2.507 7.044 5.732 7.044 1.613 0 4.945-.956 4.945-6.308zm1.72-.52c0 4.115-2.831 7.515-7.149 7.515-4.908 0-6.951-3.914-6.951-7.221 0-2.977 2.114-7.185 7.06-7.185 4.03 0 7.04 2.61 7.04 6.89zm17.655 4.888c.072.66.197 1.69.967 1.947.52.166.985.166 1.164.166.09 0 .143.018.143.092 0 .11-.161.165-.376.165-.394 0-2.328-.055-2.99-.11-.412-.037-.501-.092-.501-.184 0-.073.036-.11.125-.129.09-.018.108-.33.072-.661l-.86-9.482h-.054l-4.386 9.555c-.376.81-.43.974-.59.974-.126 0-.216-.183-.556-.845-.466-.9-2.006-4.08-2.095-4.263-.16-.33-2.166-4.742-2.363-5.238h-.072l-.716 8.527c-.018.295-.018.625-.018.937 0 .276.197.515.465.57.305.073.573.092.68.092.072 0 .144.037.144.092 0 .128-.108.165-.322.165-.663 0-1.523-.055-1.665-.055-.162 0-1.021.055-1.505.055-.179 0-.304-.037-.304-.165 0-.055.09-.092.18-.092.142 0 .268 0 .536-.056.591-.11.645-.826.716-1.525l1.29-11.98c.018-.203.089-.331.197-.331.107 0 .179.073.268.275l5.479 11.559 5.264-11.54c.072-.166.144-.294.269-.294.126 0 .179.147.215.496zm5.491-6.193c0-2.867 0-3.381-.036-3.969-.036-.625-.178-.919-.77-1.048a3.334 3.334 0 0 0-.61-.055c-.07 0-.143-.036-.143-.11 0-.11.09-.147.287-.147.806 0 1.88.055 2.025.055.394 0 1.433-.055 2.257-.055 2.239 0 3.046.772 3.332 1.047.394.386.896 1.213.896 2.187 0 2.61-1.864 4.373-4.408 4.373-.089 0-.286 0-.375-.018-.09 0-.197-.037-.197-.128 0-.147.107-.166.483-.166 1.738 0 3.1-1.305 3.1-2.995 0-.607-.055-1.838-1.004-2.83-.949-.993-2.043-.919-2.454-.919-.305 0-.609.037-.771.11-.107.037-.143.166-.143.35v7.552c0 1.764 0 3.216.09 3.987.053.533.161.938.699 1.01.25.038.644.075.805.075.108 0 .144.055.144.11 0 .092-.09.147-.287.147-.985 0-2.114-.055-2.203-.055-.054 0-1.183.055-1.72.055-.197 0-.287-.037-.287-.147 0-.055.036-.11.143-.11.161 0 .377-.037.538-.074.359-.073.448-.478.52-1.01.09-.772.09-2.224.09-3.988zm15.944 2.48c.09 0 .09-.055.072-.128l-1.701-4.961c-.09-.276-.18-.276-.27 0l-1.576 4.961c-.036.092 0 .129.054.129zm-1.863-7.35c.215-.606.287-.716.395-.716.108 0 .178.091.394.661.268.699 3.08 8.288 4.174 11.08.645 1.636 1.164 1.93 1.541 2.04.268.092.537.11.717.11.106 0 .178.02.178.11 0 .111-.16.148-.358.148-.27 0-1.577 0-2.813-.037-.34-.018-.537-.018-.537-.128 0-.074.053-.11.125-.13.108-.036.215-.201.108-.495l-1.666-4.52c-.036-.074-.072-.111-.161-.111h-3.852c-.09 0-.144.055-.18.148l-1.075 3.252c-.161.46-.25.9-.25 1.23 0 .368.375.534.68.534h.18c.126 0 .179.037.179.11 0 .11-.108.147-.27.147-.429 0-1.2-.055-1.397-.055-.197 0-1.181.055-2.024.055-.232 0-.34-.037-.34-.147 0-.073.072-.11.16-.11.127 0 .377-.019.52-.037.825-.11 1.184-.808 1.506-1.727zm10.453 10.934c.036 1.507.215 1.985.698 2.132.34.091.733.11.894.11.09 0 .142.037.142.11 0 .11-.107.147-.321.147-1.02 0-1.737-.055-1.9-.055-.162 0-.918.055-1.724.055-.18 0-.287-.019-.287-.147 0-.073.054-.11.144-.11.143 0 .465-.019.734-.11.448-.13.538-.662.538-2.334l.018-10.53c0-.717.053-.918.198-.918.145 0 .452.404.632.587.27.313 2.935 3.272 5.689 6.304 1.77 1.948 3.72 4.19 4.293 4.795l-.198-9.334c-.018-1.195-.142-1.6-.697-1.746a4.687 4.687 0 0 0-.876-.092c-.125 0-.143-.055-.143-.129 0-.11.143-.128.357-.128.805 0 1.665.055 1.864.055.199 0 .793-.055 1.527-.055.198 0 .323.018.323.128 0 .074-.072.13-.197.13-.09 0-.216 0-.43.054-.592.13-.663.534-.663 1.636l-.036 10.768c0 1.212-.036 1.305-.162 1.305-.145 0-.362-.203-1.313-1.176-.198-.184-2.773-2.885-4.669-4.98a390.014 390.014 0 0 1-4.669-5.274zm18.467-2.26c0-.993-.18-1.397-.413-1.93-.125-.294-2.528-4.336-3.155-5.291-.448-.681-.897-1.14-1.219-1.36-.27-.185-.609-.295-.771-.295-.09 0-.18-.036-.18-.129 0-.073.073-.128.234-.128.34 0 1.685.055 1.774.055.126 0 .808-.055 1.506-.055.197 0 .234.055.234.128 0 .074-.109.093-.27.166-.142.073-.232.183-.232.331 0 .22.09.44.232.717.288.533 2.977 5.273 3.3 5.806.34-.772 2.617-4.796 2.976-5.403.233-.385.305-.698.305-.936 0-.258-.072-.46-.287-.515-.162-.055-.269-.092-.269-.183 0-.074.107-.111.287-.111.466 0 1.04.055 1.183.055.107 0 1.398-.055 1.74-.055.125 0 .232.037.232.11 0 .092-.09.147-.233.147a1.67 1.67 0 0 0-.824.257c-.36.221-.556.442-.95.938-.592.735-3.102 5.053-3.425 5.843-.27.662-.27 1.231-.27 1.838v1.58c0 .294 0 1.066.054 1.837.036.533.197.938.736 1.01.25.038.646.075.807.075.107 0 .143.055.143.11 0 .092-.09.147-.287.147-.985 0-2.116-.055-2.205-.055-.09 0-1.22.055-1.757.055-.197 0-.287-.037-.287-.147 0-.055.036-.11.143-.11.161 0 .377-.037.538-.074.359-.073.52-.478.556-1.01.054-.772.054-1.544.054-1.838zm14.046.937c0 1.26 0 2.297.064 2.848.038.38.116.67.499.721.178.027.46.053.576.053.077 0 .102.04.102.08 0 .065-.064.104-.205.104-.704 0-1.509-.04-1.573-.04-.064 0-.871.04-1.255.04-.141 0-.204-.026-.204-.105 0-.04.025-.079.101-.079.116 0 .27-.026.384-.053.257-.052.321-.34.372-.721.064-.551.064-1.588.064-2.848v-2.31c0-2.048 0-2.416-.026-2.835-.025-.447-.153-.67-.435-.736a1.628 1.628 0 0 0-.397-.052c-.05 0-.102-.026-.102-.079 0-.078.064-.105.204-.105.423 0 1.23.04 1.294.04.064 0 .87-.04 1.253-.04.141 0 .205.027.205.105 0 .053-.051.08-.102.08-.09 0-.167.012-.32.038-.346.066-.448.29-.474.75-.025.418-.025.786-.025 2.834zm4.906 2.013c.026 1.075.154 1.416.498 1.521.243.066.524.079.64.079.064 0 .102.026.102.078 0 .079-.077.105-.23.105-.729 0-1.24-.039-1.357-.039-.116 0-.656.04-1.232.04-.128 0-.205-.014-.205-.106 0-.052.039-.078.103-.078.102 0 .332-.013.524-.079.32-.092.384-.472.384-1.665l.014-7.514c0-.511.038-.656.141-.656.103 0 .323.29.452.42.192.223 2.096 2.335 4.062 4.498 1.266 1.39 2.658 2.99 3.068 3.422l-.142-6.661c-.013-.852-.102-1.14-.498-1.246a3.284 3.284 0 0 0-.626-.065c-.089 0-.102-.04-.102-.093 0-.077.102-.09.255-.09.576 0 1.19.038 1.332.038.142 0 .566-.039 1.09-.039.142 0 .231.014.231.091 0 .053-.051.093-.14.093-.065 0-.155 0-.307.039-.423.092-.474.38-.474 1.167l-.025 7.684c0 .866-.026.93-.118.93-.102 0-.257-.144-.937-.838-.14-.131-1.98-2.059-3.334-3.553a272.239 272.239 0 0 1-3.335-3.764zm16.08 1.977c-1.92 0-3.212-.486-4.223-1.417-1.242-1.142-1.548-2.64-1.548-3.886 0-.88.294-2.414 1.433-3.583.768-.787 1.932-1.405 3.903-1.405.512 0 1.229.04 1.855.158.487.092.896.17 1.305.196.142.014.167.066.167.146 0 .104-.038.262-.064.734-.025.433-.025 1.156-.038 1.352-.014.197-.039.276-.116.276-.09 0-.102-.092-.102-.276 0-.51-.205-1.05-.537-1.338-.448-.394-1.434-.748-2.56-.748-1.702 0-2.495.51-2.943.957-.934.92-1.152 2.088-1.152 3.426 0 2.508 1.88 4.804 4.62 4.804.96 0 1.715-.118 2.226-.656.27-.289.436-.867.474-1.103.025-.144.051-.196.128-.196.064 0 .09.091.09.196 0 .092-.153 1.235-.282 1.68-.076.25-.102.276-.332.381-.512.21-1.485.302-2.305.302zm5.297-.223c-.485 0-.69-.394-.69-.722 0-.302.205-.722.704-.722.396 0 .703.263.703.682 0 .42-.28.762-.717.762z"/><path fill="none" stroke="#00264c" stroke-miterlimit="50" stroke-width=".2" d="M73.374 19.73c0 1.26 0 2.295.063 2.846.039.38.115.669.499.72.179.027.46.054.574.054.077 0 .102.039.102.078 0 .066-.064.105-.204.105-.702 0-1.508-.039-1.572-.039-.064 0-.87.04-1.254.04-.14 0-.204-.027-.204-.106 0-.04.025-.078.101-.078.116 0 .27-.027.385-.053.256-.052.32-.341.37-.721.065-.55.065-1.587.065-2.846v-5.546l-1.895.026c-.792.013-1.1.105-1.305.42-.14.223-.178.315-.217.406-.039.106-.077.132-.128.132-.038 0-.064-.04-.064-.118 0-.132.256-1.26.28-1.364.028-.079.078-.25.13-.25.09 0 .218.132.563.158.371.04.857.065 1.01.065h4.796a4.9 4.9 0 0 0 .906-.065c.192-.026.31-.065.362-.065.066 0 .066.078.066.157 0 .393-.04 1.298-.04 1.442 0 .118-.039.17-.092.17-.065 0-.09-.04-.104-.223l-.012-.144c-.039-.393-.346-.694-1.572-.72l-1.61-.027zm13.846.007c0 1.26 0 2.297.064 2.848.038.38.115.67.498.721.18.027.461.053.577.053.076 0 .102.04.102.08 0 .065-.064.104-.205.104-.704 0-1.51-.04-1.574-.04-.064 0-.87.04-1.253.04-.142 0-.205-.026-.205-.105 0-.04.025-.079.102-.079.115 0 .268-.026.383-.053.256-.052.32-.34.372-.721.063-.551.063-1.588.063-2.848v-1.378a.075.075 0 0 0-.076-.079H80.64c-.037 0-.076.013-.076.079v1.378c0 1.26 0 2.297.065 2.848.038.38.114.67.499.721.178.027.46.053.575.053.077 0 .102.04.102.08 0 .065-.063.104-.204.104-.704 0-1.51-.04-1.574-.04-.064 0-.87.04-1.254.04-.141 0-.205-.026-.205-.105 0-.04.025-.079.102-.079.115 0 .27-.026.384-.053.256-.052.32-.34.372-.721.063-.551.063-1.588.063-2.848v-2.31c0-2.048 0-2.416-.025-2.835-.026-.447-.129-.656-.55-.749a2.311 2.311 0 0 0-.436-.039c-.051 0-.102-.026-.102-.079 0-.078.064-.105.205-.105.576 0 1.382.04 1.446.04.063 0 .87-.04 1.254-.04.14 0 .205.027.205.105 0 .053-.051.08-.102.08-.09 0-.167.012-.321.038-.345.066-.448.29-.473.75-.026.418-.026.786-.026 2.834v.275c0 .066.039.079.076.079h5.427c.038 0 .076-.013.076-.079v-.275c0-2.048 0-2.416-.025-2.835-.025-.447-.128-.656-.55-.749a2.315 2.315 0 0 0-.435-.039c-.051 0-.103-.026-.103-.079 0-.078.064-.105.205-.105.576 0 1.382.04 1.446.04.064 0 .87-.04 1.254-.04.14 0 .205.027.205.105 0 .053-.051.08-.102.08-.09 0-.167.012-.321.038-.345.066-.448.29-.473.75-.025.418-.025.786-.025 2.834zm4.555-2.314c0-2.046 0-2.413-.026-2.832-.025-.446-.127-.656-.55-.748a2.32 2.32 0 0 0-.435-.04c-.05 0-.102-.026-.102-.078 0-.078.064-.105.205-.105.294 0 .639 0 .921.014l.524.025c.09 0 2.637 0 2.931-.012a3.27 3.27 0 0 0 .55-.066c.064-.013.115-.066.18-.066.038 0 .05.053.05.119 0 .091-.063.248-.102.616-.013.131-.038.708-.064.865-.013.065-.038.144-.09.144-.076 0-.101-.065-.101-.17a1.44 1.44 0 0 0-.078-.472c-.09-.21-.217-.367-.908-.446-.217-.026-1.613-.04-1.753-.04-.052 0-.077.04-.077.132v3.619c0 .092.013.131.077.131.167 0 1.74 0 2.034-.026.308-.026.486-.052.602-.184.09-.105.14-.17.192-.17.038 0 .064.026.064.104 0 .079-.064.302-.103.735-.025.262-.05.747-.05.84 0 .104 0 .249-.09.249-.065 0-.09-.053-.09-.12 0-.13 0-.26-.05-.431-.052-.184-.167-.407-.666-.46-.346-.039-1.613-.065-1.83-.065-.065 0-.09.04-.09.092v1.153c0 .446-.013 1.967 0 2.243.039.904.23 1.075 1.484 1.075.333 0 .896 0 1.229-.144.333-.144.486-.407.576-.945.025-.144.05-.196.115-.196.077 0 .077.105.077.196 0 .105-.103.997-.167 1.273-.09.34-.192.34-.69.34-.96 0-1.664-.026-2.163-.039a22.5 22.5 0 0 0-1-.039c-.024 0-.242 0-.51.013-.256 0-.55.026-.743.026-.14 0-.205-.026-.205-.105 0-.039.026-.078.103-.078.116 0 .269-.027.383-.053.256-.052.32-.341.372-.721.064-.55.064-1.587.064-2.846zm14.38.838c0 2.699.072 3.874.395 4.205.287.293.752.422 2.15.422.949 0 1.738-.018 2.167-.55.233-.295.413-.754.466-1.102.019-.148.054-.24.161-.24.09 0 .108.074.108.276s-.125 1.304-.27 1.836c-.124.422-.178.496-1.127.496-1.29 0-2.222-.037-2.975-.055a36.99 36.99 0 0 0-1.827-.055c-.072 0-.376.018-.734.018-.359.018-.752.037-1.022.037-.197 0-.286-.037-.286-.147 0-.055.035-.11.143-.11.161 0 .377-.037.538-.074.358-.073.447-.477.52-1.01.089-.77.089-2.221.089-3.984v-3.232c0-2.865 0-3.379-.036-3.966-.036-.625-.179-.918-.77-1.047a3.33 3.33 0 0 0-.61-.055c-.071 0-.143-.037-.143-.11 0-.11.09-.147.286-.147.806 0 1.936.055 2.025.055.09 0 1.398-.055 1.935-.055.198 0 .287.037.287.147 0 .073-.072.11-.143.11-.126 0-.377.019-.592.055-.52.092-.663.404-.698 1.047-.037.587-.037 1.101-.037 3.966zm13.544-.784c.09 0 .09-.056.072-.129l-1.702-4.961c-.09-.276-.18-.276-.268 0l-1.577 4.961c-.036.092 0 .129.053.129zm-1.858-7.35c.215-.607.287-.717.394-.717.107 0 .18.091.394.661.27.699 3.084 8.288 4.178 11.08.646 1.636 1.166 1.93 1.541 2.04.27.092.54.11.718.11.108 0 .18.02.18.11 0 .111-.162.148-.359.148-.27 0-1.578 0-2.815-.037-.34-.018-.538-.018-.538-.128 0-.074.054-.11.126-.13.107-.036.215-.201.107-.495l-1.667-4.52c-.036-.074-.072-.111-.162-.111h-3.855c-.089 0-.142.055-.178.148l-1.076 3.252c-.161.46-.25.9-.25 1.23 0 .368.375.534.68.534h.18c.124 0 .18.037.18.11 0 .11-.109.147-.27.147-.43 0-1.201-.055-1.399-.055-.197 0-1.183.055-2.025.055-.234 0-.34-.037-.34-.147 0-.073.07-.11.16-.11.126 0 .377-.019.52-.037.825-.11 1.183-.808 1.506-1.727zm21.064 10.896h.07c.484-1.69 2.133-7.02 2.76-9.371.179-.68.198-.938.198-1.176 0-.332-.197-.552-1.021-.552-.09 0-.162-.055-.162-.129 0-.091.09-.128.304-.128.914 0 1.667.055 1.828.055.125 0 .896-.055 1.45-.055.163 0 .252.037.252.11 0 .092-.054.147-.161.147-.072 0-.413.019-.61.092-.537.202-.824.974-1.163 1.985-.79 2.334-2.599 8.177-3.297 10.235-.466 1.36-.556 1.58-.753 1.58-.18 0-.286-.239-.537-.956l-3.512-10.216h-.036c-.645 1.764-3.1 8.49-3.744 10.199-.286.77-.376.973-.59.973-.18 0-.27-.202-.628-1.45l-3.189-10.898c-.286-.974-.52-1.25-.986-1.434-.233-.091-.68-.11-.806-.11-.089 0-.161-.018-.161-.129 0-.091.108-.128.286-.128.933 0 1.917.055 2.115.055.16 0 .949-.055 1.845-.055.25 0 .323.055.323.128 0 .111-.09.13-.18.13-.143 0-.484 0-.698.11-.108.055-.233.202-.233.44 0 .24.16.883.34 1.676.269 1.177 2.132 7.93 2.402 8.905h.035l3.798-10.488c.268-.754.34-.846.447-.846.126 0 .234.24.449.865zm20.465 2.793c-2.69 0-4.5-.68-5.917-1.985-1.739-1.598-2.169-3.693-2.169-5.439 0-1.23.412-3.38 2.008-5.016 1.075-1.102 2.707-1.966 5.47-1.966.717 0 1.72.055 2.598.22.682.13 1.255.24 1.83.276.197.018.233.091.233.202 0 .147-.055.368-.09 1.03-.036.606-.036 1.616-.054 1.892-.018.276-.053.386-.161.386-.126 0-.144-.129-.144-.386 0-.716-.287-1.47-.753-1.874-.627-.552-2.008-1.048-3.586-1.048-2.385 0-3.496.717-4.124 1.341-1.308 1.287-1.614 2.922-1.614 4.796 0 3.51 2.635 6.725 6.473 6.725 1.345 0 2.403-.164 3.12-.918.377-.404.61-1.213.664-1.543.036-.203.072-.276.178-.276.091 0 .126.128.126.276 0 .128-.215 1.727-.394 2.351-.108.35-.144.386-.466.534-.718.294-2.08.422-3.228.422zm18.715-6.995c0-4.415-2.616-6.787-5.446-6.787-2.993 0-5.231 2.024-5.231 6.05 0 4.285 2.507 7.044 5.732 7.044 1.613 0 4.945-.956 4.945-6.308zm1.72-.52c0 4.115-2.831 7.515-7.149 7.515-4.908 0-6.951-3.914-6.951-7.221 0-2.977 2.114-7.185 7.06-7.185 4.03 0 7.04 2.61 7.04 6.89zm17.655 4.888c.072.66.197 1.69.967 1.947.52.166.985.166 1.164.166.09 0 .143.018.143.092 0 .11-.161.165-.376.165-.394 0-2.328-.055-2.99-.11-.412-.037-.501-.092-.501-.184 0-.073.036-.11.125-.129.09-.018.108-.33.072-.661l-.86-9.482h-.054l-4.386 9.555c-.376.81-.43.974-.59.974-.126 0-.216-.183-.556-.845-.466-.9-2.006-4.08-2.095-4.263-.16-.33-2.166-4.742-2.363-5.238h-.072l-.716 8.527c-.018.295-.018.625-.018.937 0 .276.197.515.465.57.305.073.573.092.68.092.072 0 .144.037.144.092 0 .128-.108.165-.322.165-.663 0-1.523-.055-1.665-.055-.162 0-1.021.055-1.505.055-.179 0-.304-.037-.304-.165 0-.055.09-.092.18-.092.142 0 .268 0 .536-.056.591-.11.645-.826.716-1.525l1.29-11.98c.018-.203.089-.331.197-.331.107 0 .179.073.268.275l5.479 11.559 5.264-11.54c.072-.166.144-.294.269-.294.126 0 .179.147.215.496zm5.491-6.193c0-2.867 0-3.381-.036-3.969-.036-.625-.178-.919-.77-1.048a3.334 3.334 0 0 0-.61-.055c-.07 0-.143-.036-.143-.11 0-.11.09-.147.287-.147.806 0 1.88.055 2.025.055.394 0 1.433-.055 2.257-.055 2.239 0 3.046.772 3.332 1.047.394.386.896 1.213.896 2.187 0 2.61-1.864 4.373-4.408 4.373-.089 0-.286 0-.375-.018-.09 0-.197-.037-.197-.128 0-.147.107-.166.483-.166 1.738 0 3.1-1.305 3.1-2.995 0-.607-.055-1.838-1.004-2.83-.949-.993-2.043-.919-2.454-.919-.305 0-.609.037-.771.11-.107.037-.143.166-.143.35v7.552c0 1.764 0 3.216.09 3.987.053.533.161.938.699 1.01.25.038.644.075.805.075.108 0 .144.055.144.11 0 .092-.09.147-.287.147-.985 0-2.114-.055-2.203-.055-.054 0-1.183.055-1.72.055-.197 0-.287-.037-.287-.147 0-.055.036-.11.143-.11.161 0 .377-.037.538-.074.359-.073.448-.478.52-1.01.09-.772.09-2.224.09-3.988zm15.944 2.48c.09 0 .09-.055.072-.128l-1.701-4.961c-.09-.276-.18-.276-.27 0l-1.576 4.961c-.036.092 0 .129.054.129zm-1.863-7.35c.215-.606.287-.716.395-.716.108 0 .178.091.394.661.268.699 3.08 8.288 4.174 11.08.645 1.636 1.164 1.93 1.541 2.04.268.092.537.11.717.11.106 0 .178.02.178.11 0 .111-.16.148-.358.148-.27 0-1.577 0-2.813-.037-.34-.018-.537-.018-.537-.128 0-.074.053-.11.125-.13.108-.036.215-.201.108-.495l-1.666-4.52c-.036-.074-.072-.111-.161-.111h-3.852c-.09 0-.144.055-.18.148l-1.075 3.252c-.161.46-.25.9-.25 1.23 0 .368.375.534.68.534h.18c.126 0 .179.037.179.11 0 .11-.108.147-.27.147-.429 0-1.2-.055-1.397-.055-.197 0-1.181.055-2.024.055-.232 0-.34-.037-.34-.147 0-.073.072-.11.16-.11.127 0 .377-.019.52-.037.825-.11 1.184-.808 1.506-1.727zm10.453 10.934c.036 1.507.215 1.985.698 2.132.34.091.733.11.894.11.09 0 .142.037.142.11 0 .11-.107.147-.321.147-1.02 0-1.737-.055-1.9-.055-.162 0-.918.055-1.724.055-.18 0-.287-.019-.287-.147 0-.073.054-.11.144-.11.143 0 .465-.019.734-.11.448-.13.538-.662.538-2.334l.018-10.53c0-.717.053-.918.198-.918.145 0 .452.404.632.587.27.313 2.935 3.272 5.689 6.304 1.77 1.948 3.72 4.19 4.293 4.795l-.198-9.334c-.018-1.195-.142-1.6-.697-1.746a4.687 4.687 0 0 0-.876-.092c-.125 0-.143-.055-.143-.129 0-.11.143-.128.357-.128.805 0 1.665.055 1.864.055.199 0 .793-.055 1.527-.055.198 0 .323.018.323.128 0 .074-.072.13-.197.13-.09 0-.216 0-.43.054-.592.13-.663.534-.663 1.636l-.036 10.768c0 1.212-.036 1.305-.162 1.305-.145 0-.362-.203-1.313-1.176-.198-.184-2.773-2.885-4.669-4.98a390.014 390.014 0 0 1-4.669-5.274zm18.467-2.26c0-.993-.18-1.397-.413-1.93-.125-.294-2.528-4.336-3.155-5.291-.448-.681-.897-1.14-1.219-1.36-.27-.185-.609-.295-.771-.295-.09 0-.18-.036-.18-.129 0-.073.073-.128.234-.128.34 0 1.685.055 1.774.055.126 0 .808-.055 1.506-.055.197 0 .234.055.234.128 0 .074-.109.093-.27.166-.142.073-.232.183-.232.331 0 .22.09.44.232.717.288.533 2.977 5.273 3.3 5.806.34-.772 2.617-4.796 2.976-5.403.233-.385.305-.698.305-.936 0-.258-.072-.46-.287-.515-.162-.055-.269-.092-.269-.183 0-.074.107-.111.287-.111.466 0 1.04.055 1.183.055.107 0 1.398-.055 1.74-.055.125 0 .232.037.232.11 0 .092-.09.147-.233.147a1.67 1.67 0 0 0-.824.257c-.36.221-.556.442-.95.938-.592.735-3.102 5.053-3.425 5.843-.27.662-.27 1.231-.27 1.838v1.58c0 .294 0 1.066.054 1.837.036.533.197.938.736 1.01.25.038.646.075.807.075.107 0 .143.055.143.11 0 .092-.09.147-.287.147-.985 0-2.116-.055-2.205-.055-.09 0-1.22.055-1.757.055-.197 0-.287-.037-.287-.147 0-.055.036-.11.143-.11.161 0 .377-.037.538-.074.359-.073.52-.478.556-1.01.054-.772.054-1.544.054-1.838zm14.046.937c0 1.26 0 2.297.064 2.848.038.38.116.67.499.721.178.027.46.053.576.053.077 0 .102.04.102.08 0 .065-.064.104-.205.104-.704 0-1.509-.04-1.573-.04-.064 0-.871.04-1.255.04-.141 0-.204-.026-.204-.105 0-.04.025-.079.101-.079.116 0 .27-.026.384-.053.257-.052.321-.34.372-.721.064-.551.064-1.588.064-2.848v-2.31c0-2.048 0-2.416-.026-2.835-.025-.447-.153-.67-.435-.736a1.628 1.628 0 0 0-.397-.052c-.05 0-.102-.026-.102-.079 0-.078.064-.105.204-.105.423 0 1.23.04 1.294.04.064 0 .87-.04 1.253-.04.141 0 .205.027.205.105 0 .053-.051.08-.102.08-.09 0-.167.012-.32.038-.346.066-.448.29-.474.75-.025.418-.025.786-.025 2.834zm4.906 2.013c.026 1.075.154 1.416.498 1.521.243.066.524.079.64.079.064 0 .102.026.102.078 0 .079-.077.105-.23.105-.729 0-1.24-.039-1.357-.039-.116 0-.656.04-1.232.04-.128 0-.205-.014-.205-.106 0-.052.039-.078.103-.078.102 0 .332-.013.524-.079.32-.092.384-.472.384-1.665l.014-7.514c0-.511.038-.656.141-.656.103 0 .323.29.452.42.192.223 2.096 2.335 4.062 4.498 1.266 1.39 2.658 2.99 3.068 3.422l-.142-6.661c-.013-.852-.102-1.14-.498-1.246a3.284 3.284 0 0 0-.626-.065c-.089 0-.102-.04-.102-.093 0-.077.102-.09.255-.09.576 0 1.19.038 1.332.038.142 0 .566-.039 1.09-.039.142 0 .231.014.231.091 0 .053-.051.093-.14.093-.065 0-.155 0-.307.039-.423.092-.474.38-.474 1.167l-.025 7.684c0 .866-.026.93-.118.93-.102 0-.257-.144-.937-.838-.14-.131-1.98-2.059-3.334-3.553a272.239 272.239 0 0 1-3.335-3.764zm16.08 1.977c-1.92 0-3.212-.486-4.223-1.417-1.242-1.142-1.548-2.64-1.548-3.886 0-.88.294-2.414 1.433-3.583.768-.787 1.932-1.405 3.903-1.405.512 0 1.229.04 1.855.158.487.092.896.17 1.305.196.142.014.167.066.167.146 0 .104-.038.262-.064.734-.025.433-.025 1.156-.038 1.352-.014.197-.039.276-.116.276-.09 0-.102-.092-.102-.276 0-.51-.205-1.05-.537-1.338-.448-.394-1.434-.748-2.56-.748-1.702 0-2.495.51-2.943.957-.934.92-1.152 2.088-1.152 3.426 0 2.508 1.88 4.804 4.62 4.804.96 0 1.715-.118 2.226-.656.27-.289.436-.867.474-1.103.025-.144.051-.196.128-.196.064 0 .09.091.09.196 0 .092-.153 1.235-.282 1.68-.076.25-.102.276-.332.381-.512.21-1.485.302-2.305.302zm5.297-.223c-.485 0-.69-.394-.69-.722 0-.302.205-.722.704-.722.396 0 .703.263.703.682 0 .42-.28.762-.717.762z"/><g><path fill="#00264c" d="M16.044.36v22.715c0 2.353 1.401 3.002 3.791 3.002h32.878v6.327H4.837C1.79 32.404.8 31.35.8 28.43V.36z"/><path fill="#a1a4a7" d="M49.28.89H20.312c-2.04 0-2.611 1.113-2.611 2.544V22.04c0 1.67 1.224 2.147 2.774 2.147H50.18c2.285 0 2.203-1.432 2.203-2.306v-6.44H38.835v2.226c0 .636-.245 1.113-1.143 1.113H32.96c-.571 0-1.225-.318-1.225-1.193V7.728c0-.795.735-1.59 1.714-1.59h4.489c1.224 0 1.224.954 1.224 1.351v1.988h13.302V2.798c0-1.59-1.47-1.908-3.183-1.908"/></g></svg>